<?xml version="1.0" standalone="no"?>
<!DOCTYPE svg PUBLIC "-//W3C//DTD SVG 20010904//EN"
 "http://www.w3.org/TR/2001/REC-SVG-20010904/DTD/svg10.dtd">
<svg version="1.0" xmlns="http://www.w3.org/2000/svg"
 width="1920.000000pt" height="2160.000000pt" viewBox="0 0 1920.000000 2160.000000"
 preserveAspectRatio="xMidYMid meet">

<g transform="translate(0.000000,2160.000000) scale(0.100000,-0.100000)"
fill="#000000" stroke="none">
<path d="M9445 16827 c-61 -16 -139 -99 -155 -166 -32 -134 47 -262 183 -295
l27 -6 0 -1235 0 -1235 -47 -12 c-70 -17 -145 -95 -163 -167 -32 -134 47 -262
183 -295 l27 -6 0 -1235 0 -1235 -47 -12 c-70 -17 -145 -95 -163 -167 -32
-134 47 -262 183 -295 l27 -6 0 -1235 0 -1235 -47 -12 c-70 -17 -145 -95 -163
-167 -32 -134 47 -262 183 -295 l27 -6 0 -1235 0 -1235 -47 -12 c-70 -17 -145
-95 -163 -167 -37 -156 71 -295 230 -295 159 0 267 139 230 295 -18 72 -93
150 -163 167 l-47 12 0 1235 0 1235 28 6 c135 33 214 161 182 295 -18 72 -93
150 -163 167 l-47 12 0 1235 0 1235 28 6 c135 33 214 161 182 295 -18 72 -93
150 -163 167 l-47 12 0 1235 0 1235 28 6 c135 33 214 161 182 295 -18 72 -93
150 -163 167 l-47 12 0 1235 0 1235 28 6 c135 33 214 161 182 295 -10 42 -24
64 -64 104 -70 70 -142 89 -241 62z"/>
</g>
</svg>
